REM DIRINDEX 1\2,1\3,1\4,1\5,1\6
REM DIRNAME folder01,folder02,folder03,folder04,folder05,folder06
TITLE ""
FILE "CD2-47.mp3" MP3
  TRACK 01 AUDIO
    TITLE "6:cjc091_2359"
    INDEX 01 00:00:00
  TRACK 02 AUDIO
    TITLE "0:"
    INDEX 01 00:01:32
  TRACK 03 AUDIO
    TITLE "6:cjc091_2360"
    INDEX 01 00:01:68
  TRACK 04 AUDIO
    TITLE "0:"
    INDEX 01 00:04:05
  TRACK 05 AUDIO
    TITLE "2:cjc091_2361"
    INDEX 01 00:05:26
  TRACK 06 AUDIO
    TITLE "0:"
    INDEX 01 00:06:59
  TRACK 07 AUDIO
    TITLE "3:cjc091_2362"
    INDEX 01 00:07:05
  TRACK 08 AUDIO
    TITLE "0:"
    INDEX 01 00:08:32
  TRACK 09 AUDIO
    TITLE "4:cjc091_2363"
    INDEX 01 00:08:50
  TRACK 10 AUDIO
    TITLE "0:"
    INDEX 01 00:14:35
  TRACK 11 AUDIO
    TITLE "2:cjc091_2364"
    INDEX 01 00:15:44
  TRACK 12 AUDIO
    TITLE "0:"
    INDEX 01 00:17:06
  TRACK 13 AUDIO
    TITLE "3:cjc091_2365"
    INDEX 01 00:17:21
  TRACK 14 AUDIO
    TITLE "0:"
    INDEX 01 00:18:56
  TRACK 15 AUDIO
    TITLE "4:cjc091_2366"
    INDEX 01 00:19:05
  TRACK 16 AUDIO
    TITLE "0:"
    INDEX 01 00:21:35
  TRACK 17 AUDIO
    TITLE "2:cjc091_2367"
    INDEX 01 00:22:50
  TRACK 18 AUDIO
    TITLE "0:"
    INDEX 01 00:24:14
  TRACK 19 AUDIO
    TITLE "3:cjc091_2368"
    INDEX 01 00:24:31
  TRACK 20 AUDIO
    TITLE "0:"
    INDEX 01 00:25:68
  TRACK 21 AUDIO
    TITLE "4:cjc091_2369"
    INDEX 01 00:26:09
  TRACK 22 AUDIO
    TITLE "0:"
    INDEX 01 00:29:44
  TRACK 23 AUDIO
    TITLE "2:cjc091_2370"
    INDEX 01 00:30:63
  TRACK 24 AUDIO
    TITLE "0:"
    INDEX 01 00:32:17
  TRACK 25 AUDIO
    TITLE "3:cjc091_2371"
    INDEX 01 00:32:35
  TRACK 26 AUDIO
    TITLE "0:"
    INDEX 01 00:34:18
  TRACK 27 AUDIO
    TITLE "4:cjc091_2372"
    INDEX 01 00:34:36
  TRACK 28 AUDIO
    TITLE "0:"
    INDEX 01 00:38:26
  TRACK 29 AUDIO
    TITLE "2:cjc091_2373"
    INDEX 01 00:39:39
  TRACK 30 AUDIO
    TITLE "0:"
    INDEX 01 00:41:14
  TRACK 31 AUDIO
    TITLE "3:cjc091_2374"
    INDEX 01 00:41:24
  TRACK 32 AUDIO
    TITLE "0:"
    INDEX 01 00:42:41
  TRACK 33 AUDIO
    TITLE "4:cjc091_2375"
    INDEX 01 00:42:57
  TRACK 34 AUDIO
    TITLE "0:"
    INDEX 01 00:46:23
  TRACK 35 AUDIO
    TITLE "2:cjc091_2376"
    INDEX 01 00:47:32
  TRACK 36 AUDIO
    TITLE "0:"
    INDEX 01 00:48:51
  TRACK 37 AUDIO
    TITLE "3:cjc091_2377"
    INDEX 01 00:48:71
  TRACK 38 AUDIO
    TITLE "0:"
    INDEX 01 00:50:15
  TRACK 39 AUDIO
    TITLE "4:cjc091_2378"
    INDEX 01 00:50:31
  TRACK 40 AUDIO
    TITLE "0:"
    INDEX 01 00:54:54
  TRACK 41 AUDIO
    TITLE "2:cjc091_2379"
    INDEX 01 00:55:65
  TRACK 42 AUDIO
    TITLE "0:"
    INDEX 01 00:57:23
  TRACK 43 AUDIO
    TITLE "3:cjc091_2380"
    INDEX 01 00:57:43
  TRACK 44 AUDIO
    TITLE "0:"
    INDEX 01 00:59:53
  TRACK 45 AUDIO
    TITLE "4:cjc091_2381"
    INDEX 01 01:00:04
  TRACK 46 AUDIO
    TITLE "0:"
    INDEX 01 01:02:63
  TRACK 47 AUDIO
    TITLE "2:cjc091_2382"
    INDEX 01 01:03:69
  TRACK 48 AUDIO
    TITLE "0:"
    INDEX 01 01:05:66
  TRACK 49 AUDIO
    TITLE "3:cjc091_2383"
    INDEX 01 01:06:10
  TRACK 50 AUDIO
    TITLE "0:"
    INDEX 01 01:08:35
  TRACK 51 AUDIO
    TITLE "4:cjc091_2384"
    INDEX 01 01:08:56
  TRACK 52 AUDIO
    TITLE "0:"
    INDEX 01 01:13:08
  TRACK 53 AUDIO
    TITLE "2:cjc091_2385"
    INDEX 01 01:14:21
  TRACK 54 AUDIO
    TITLE "0:"
    INDEX 01 01:15:62
  TRACK 55 AUDIO
    TITLE "3:cjc091_2386"
    INDEX 01 01:15:74
  TRACK 56 AUDIO
    TITLE "0:"
    INDEX 01 01:17:20
  TRACK 57 AUDIO
    TITLE "4:cjc091_2387"
    INDEX 01 01:17:41
  TRACK 58 AUDIO
    TITLE "0:"
    INDEX 01 01:21:14
  TRACK 59 AUDIO
    TITLE "2:cjc091_2388"
    INDEX 01 01:22:33
  TRACK 60 AUDIO
    TITLE "0:"
    INDEX 01 01:23:42
  TRACK 61 AUDIO
    TITLE "3:cjc091_2389"
    INDEX 01 01:23:44
  TRACK 62 AUDIO
    TITLE "0:"
    INDEX 01 01:24:63
  TRACK 63 AUDIO
    TITLE "4:cjc091_2390"
    INDEX 01 01:25:11
  TRACK 64 AUDIO
    TITLE "0:"
    INDEX 01 01:29:41
  TRACK 65 AUDIO
    TITLE "2:cjc091_2391"
    INDEX 01 01:30:50
  TRACK 66 AUDIO
    TITLE "0:"
    INDEX 01 01:32:33
  TRACK 67 AUDIO
    TITLE "3:cjc091_2392"
    INDEX 01 01:32:57
  TRACK 68 AUDIO
    TITLE "0:"
    INDEX 01 01:35:24
  TRACK 69 AUDIO
    TITLE "4:cjc091_2393"
    INDEX 01 01:35:47
  TRACK 70 AUDIO
    TITLE "0:"
    INDEX 01 01:39:12
  TRACK 71 AUDIO
    TITLE "2:cjc091_2394"
    INDEX 01 01:40:23
  TRACK 72 AUDIO
    TITLE "0:"
    INDEX 01 01:41:65
  TRACK 73 AUDIO
    TITLE "3:cjc091_2395"
    INDEX 01 01:42:12
  TRACK 74 AUDIO
    TITLE "0:"
    INDEX 01 01:43:68
  TRACK 75 AUDIO
    TITLE "4:cjc091_2396"
    INDEX 01 01:44:11
  TRACK 76 AUDIO
    TITLE "0:"
    INDEX 01 01:48:42
  TRACK 77 AUDIO
    TITLE "2:cjc091_2397"
    INDEX 01 01:49:47
  TRACK 78 AUDIO
    TITLE "0:"
    INDEX 01 01:51:17
  TRACK 79 AUDIO
    TITLE "3:cjc091_2398"
    INDEX 01 01:51:34
  TRACK 80 AUDIO
    TITLE "0:"
    INDEX 01 01:53:25
  TRACK 81 AUDIO
    TITLE "4:cjc091_2399"
    INDEX 01 01:53:47
  TRACK 82 AUDIO
    TITLE "0:"
    INDEX 01 01:57:09
  TRACK 83 AUDIO
    TITLE "2:cjc091_2400"
    INDEX 01 01:58:15
  TRACK 84 AUDIO
    TITLE "0:"
    INDEX 01 01:59:32
  TRACK 85 AUDIO
    TITLE "3:cjc091_2401"
    INDEX 01 01:59:55
  TRACK 86 AUDIO
    TITLE "0:"
    INDEX 01 02:01:41
  TRACK 87 AUDIO
    TITLE "4:cjc091_2402"
    INDEX 01 02:01:60
  TRACK 88 AUDIO
    TITLE "0:"
    INDEX 01 02:04:08
  TRACK 89 AUDIO
    TITLE "2:cjc091_2403"
    INDEX 01 02:05:17
  TRACK 90 AUDIO
    TITLE "0:"
    INDEX 01 02:06:71
  TRACK 91 AUDIO
    TITLE "3:cjc091_2404"
    INDEX 01 02:07:00
  TRACK 92 AUDIO
    TITLE "0:"
    INDEX 01 02:08:23
  TRACK 93 AUDIO
    TITLE "4:cjc091_2405"
    INDEX 01 02:08:39
  TRACK 94 AUDIO
    TITLE "0:"
    INDEX 01 02:13:09
